<?xml version="1.0" encoding="UTF-8"?>
<svg width="128px" height="128px" viewBox="0 0 128 128" version="1.1" xmlns="http://www.w3.org/2000/svg" xmlns:xlink="http://www.w3.org/1999/xlink">
    <!-- Generator: Sketch 42 (36781) - http://www.bohemiancoding.com/sketch -->
    <title>HD-wordpress-icon</title>
    <desc>Created with Sketch.</desc>
    <defs></defs>
    <g id="Page-1" stroke="none" stroke-width="1" fill="none" fill-rule="evenodd">
        <g id="HD-wordpress-icon">
            <g id="logo_rgb" transform="translate(14.000000, 9.000000)">
                <g>
                    <g id="Group-3" fill="#EA0A8D">
                        <path d="M9.33613445,15.3846154 C4.18004202,15.3846154 0,19.5226496 0,24.7149573 L0,90.5982906 C0,95.7910256 4.18004202,100 9.33613445,100 L91.4092437,100 C96.5657605,100 101,95.7910256 101,90.5982906 L101,0 C101,0 97.108105,15.3846154 85.0598235,15.3846154 L9.33613445,15.3846154 Z" id="Fill-1"></path>
                    </g>
                    <path d="M13.8005042,55.4495726 L13.8005042,59.9294872 C14.1811639,59.4871795 14.5524874,59.1367521 14.9153235,58.8786325 C15.2777353,58.6205128 15.6787647,58.4269231 16.1179874,58.2978632 C16.5576345,58.1688034 17.029958,58.1042735 17.534958,58.1042735 C18.2967017,58.1042735 18.9722983,58.2666667 19.5621723,58.5910256 C20.1511975,58.915812 20.6146092,59.3876068 20.9511345,60.0068376 C21.1637437,60.3683761 21.3067563,60.7722222 21.3797479,61.2183761 C21.4531639,61.6645299 21.490084,62.1786325 21.490084,62.7615385 L21.490084,68.5465812 C21.490084,69.1517094 21.3521639,69.608547 21.078021,69.9183761 C20.8030294,70.2282051 20.4389202,70.382906 19.9848445,70.382906 C18.996063,70.382906 18.5020966,69.7709402 18.5020966,68.5465812 L18.5020966,63.4474359 C18.5020966,62.4811966 18.359084,61.7380342 18.0734832,61.2183761 C17.7878824,60.6982906 17.2459622,60.4384615 16.4477227,60.4384615 C15.9130168,60.4384615 15.4313571,60.591453 15.0031681,60.8974359 C14.574979,61.2034188 14.2541555,61.6217949 14.0419706,62.1529915 C13.8811345,62.6029915 13.8005042,63.4029915 13.8005042,64.5534188 L13.8005042,68.5465812 C13.8005042,69.1440171 13.6664034,69.5995726 13.3994748,69.9128205 C13.1316975,70.2260684 12.7603739,70.382906 12.2842311,70.382906 C11.2958739,70.382906 10.8014832,69.7709402 10.8014832,68.5465812 L10.8014832,55.4495726 C10.8014832,54.8371795 10.9313403,54.3782051 11.191479,54.0722222 C11.4511933,53.7662393 11.8157269,53.6128205 12.2842311,53.6128205 C12.7603739,53.6128205 13.1316975,53.7679487 13.3994748,54.0777778 C13.6664034,54.3871795 13.8005042,54.8448718 13.8005042,55.4495726" id="Fill-4" fill="#FFFFFF"></path>
                    <path d="M25.160458,63.2700855 L30.5979076,63.2700855 C30.5244916,62.2380342 30.2482269,61.4653846 29.7682647,60.9525641 C29.2887269,60.4401709 28.6568403,60.1837607 27.8738782,60.1837607 C27.1269874,60.1837607 26.5133487,60.4440171 26.0338109,60.9636752 C25.5538487,61.4837607 25.2627311,62.2525641 25.160458,63.2700855 Z M31.0260966,64.9846154 L25.160458,64.9846154 C25.1676723,65.6705128 25.3051681,66.2752137 25.572521,66.7991453 C25.8398739,67.3226496 26.1946471,67.717094 26.6376891,67.9824786 C27.0807311,68.2482906 27.569605,68.3807692 28.1043109,68.3807692 C28.4629034,68.3807692 28.7909412,68.3384615 29.0875756,68.2534188 C29.3837857,68.1692308 29.6715084,68.0358974 29.949895,67.8555556 C30.2278571,67.6747863 30.4841765,67.4811966 30.7188529,67.2747863 C30.9526807,67.0683761 31.2569538,66.7880342 31.6303992,66.4337607 C31.784021,66.3012821 32.0038445,66.2350427 32.2898697,66.2350427 C32.5971134,66.2350427 32.8457941,66.3196581 33.0367605,66.4893162 C33.2268782,66.6589744 33.321937,66.8982906 33.321937,67.2081197 C33.321937,67.4811966 33.2158445,67.8 33.0032353,68.1649573 C32.7914748,68.5303419 32.4706513,68.8807692 32.0424622,69.215812 C31.6138487,69.5517094 31.0753235,69.8299145 30.4273109,70.0512821 C29.7792983,70.2722222 29.034105,70.382906 28.1921555,70.382906 C26.2659412,70.382906 24.7687647,69.8299145 23.6997773,68.7235043 C22.6303655,67.6175214 22.0956597,66.117094 22.0956597,64.2213675 C22.0956597,63.3294872 22.2276387,62.5012821 22.4911723,61.7380342 C22.7547059,60.9747863 23.1391849,60.3205128 23.6446092,59.774359 C24.1496092,59.2290598 24.7721597,58.8106838 25.5118361,58.5192308 C26.2515126,58.2277778 27.0718193,58.0820513 27.9723319,58.0820513 C29.1444412,58.0820513 30.1493487,58.3311966 30.9879034,58.8290598 C31.826458,59.3264957 32.4545252,59.9700855 32.8716807,60.7589744 C33.2892605,61.5482906 33.4980504,62.3521368 33.4980504,63.1705128 C33.4980504,63.9303419 33.2820462,64.4226496 32.8496134,64.6474359 C32.417605,64.8726496 31.8099076,64.9846154 31.0260966,64.9846154 L31.0260966,64.9846154 Z" id="Fill-5" fill="#FFFFFF"></path>
                    <path d="M34.2241471,68.5465812 L34.2241471,55.4495726 C34.2241471,54.8448718 34.3578235,54.3871795 34.6256008,54.0777778 C34.8925294,53.7679487 35.2532437,53.6128205 35.7073193,53.6128205 C36.161395,53.6128205 36.5276261,53.7662393 36.8060126,54.0722222 C37.0839748,54.3782051 37.2231681,54.8371795 37.2231681,55.4495726 L37.2231681,68.5465812 C37.2231681,69.1589744 37.0822773,69.6179487 36.8004958,69.9239316 C36.5187143,70.2299145 36.1537563,70.382906 35.7073193,70.382906 C35.2676723,70.382906 34.9112017,70.224359 34.6362101,69.907265 C34.3620672,69.5905983 34.2241471,69.1367521 34.2241471,68.5465812" id="Fill-6" fill="#FFFFFF"></path>
                    <path d="M38.5213151,68.5465812 L38.5213151,55.4495726 C38.5213151,54.8448718 38.6549916,54.3871795 38.9223445,54.0777778 C39.1896975,53.7679487 39.5504118,53.6128205 40.0044874,53.6128205 C40.4581387,53.6128205 40.8243697,53.7662393 41.1027563,54.0722222 C41.3811429,54.3782051 41.5203361,54.8371795 41.5203361,55.4495726 L41.5203361,68.5465812 C41.5203361,69.1589744 41.379021,69.6179487 41.0972395,69.9239316 C40.815458,70.2299145 40.4509244,70.382906 40.0044874,70.382906 C39.5648403,70.382906 39.2083697,70.224359 38.9333782,69.907265 C38.6588109,69.5905983 38.5213151,69.1367521 38.5213151,68.5465812" id="Fill-7" fill="#FFFFFF"></path>
                    <path d="M51.0351303,64.2435897 C51.0351303,63.0123932 50.7656555,62.0534188 50.2275546,61.3675214 C49.6890294,60.6816239 48.9659034,60.3388889 48.0577521,60.3388889 C47.4716975,60.3388889 46.9552395,60.4918803 46.5092269,60.7978632 C46.0623655,61.1038462 45.7177773,61.5555556 45.4767353,62.1529915 C45.2348445,62.7504274 45.1138992,63.4474359 45.1138992,64.2435897 C45.1138992,65.032906 45.2331471,65.7222222 45.4707941,66.3123932 C45.7088655,66.9025641 46.0496345,67.3538462 46.4926765,67.6675214 C46.9357185,67.9807692 47.4572689,68.1376068 48.0577521,68.1376068 C48.9659034,68.1376068 49.6890294,67.792735 50.2275546,67.1029915 C50.7656555,66.4136752 51.0351303,65.4606838 51.0351303,64.2435897 Z M54.0443361,64.2435897 C54.0443361,65.1435897 53.9051429,65.9730769 53.6271807,66.7324786 C53.3487941,67.4923077 52.9464916,68.1448718 52.419,68.6905983 C51.8915084,69.2363248 51.2617437,69.6551282 50.5292815,69.9461538 C49.7972437,70.2371795 48.9731176,70.382906 48.0577521,70.382906 C47.1496008,70.382906 46.3335378,70.2354701 45.6087143,69.9405983 C44.8834664,69.6457265 44.2549748,69.2235043 43.7245126,68.6739316 C43.1932017,68.1247863 42.7904748,67.475641 42.5163319,66.7273504 C42.2417647,65.9786325 42.1042689,65.1508547 42.1042689,64.2435897 C42.1042689,63.3294872 42.2434622,62.4923077 42.5214244,61.7324786 C42.7993866,60.9730769 43.1991429,60.324359 43.7189958,59.7854701 C44.2388487,59.2474359 44.8681891,58.8324786 45.6087143,58.541453 C46.3479664,58.25 47.1644538,58.1042735 48.0577521,58.1042735 C48.9659034,58.1042735 49.789605,58.2521368 50.5292815,58.5470085 C51.2693824,58.8418803 51.9029664,59.2619658 52.4300336,59.8076923 C52.9571008,60.3538462 53.3581303,61.0025641 53.6326975,61.7547009 C53.9072647,62.5068376 54.0443361,63.3363248 54.0443361,64.2435897 L54.0443361,64.2435897 Z" id="Fill-8" fill="#FFFFFF"></path>
                    <path d="M13.1847437,83.3034188 C13.1847437,84.1217949 13.3116303,84.8188034 13.5641303,85.3940171 C13.8170546,85.9692308 14.162916,86.4025641 14.6021387,86.6940171 C15.0413613,86.9850427 15.5213235,87.1307692 16.0411765,87.1307692 C16.5682437,87.1307692 17.0499034,86.992735 17.4857311,86.715812 C17.9211345,86.4393162 18.2691176,86.0153846 18.5292563,85.4440171 C18.7889706,84.8722222 18.9192521,84.1589744 18.9192521,83.3034188 C18.9192521,82.4995726 18.7889706,81.8081197 18.5292563,81.2294872 C18.2691176,80.6504274 17.9177395,80.2081197 17.4751218,79.9017094 C17.0316555,79.5957265 16.5466008,79.442735 16.0195336,79.442735 C15.4699748,79.442735 14.9794034,79.5995726 14.547395,79.9128205 C14.1149622,80.2264957 13.7801345,80.6760684 13.542063,81.2623932 C13.304416,81.8487179 13.1847437,82.5290598 13.1847437,83.3034188 Z M19.0839076,87.7393162 L19.0839076,87.4405983 C18.6811807,87.9051282 18.2839706,88.282906 17.8918529,88.574359 C17.5001597,88.865812 17.0753655,89.0867521 16.617895,89.2380342 C16.1604244,89.3893162 15.6605168,89.4653846 15.1185966,89.4653846 C14.400563,89.4653846 13.736,89.3119658 13.1249076,89.0059829 C12.5133908,88.7 11.9837773,88.2632479 11.5373403,87.6948718 C11.090479,87.1269231 10.7522563,86.4598291 10.5213992,85.692735 C10.290542,84.925641 10.1755378,84.0961538 10.1755378,83.2038462 C10.1755378,81.315812 10.6330084,79.8448718 11.5487983,78.7901709 C12.4637395,77.7354701 13.6685252,77.2081197 15.1623067,77.2081197 C16.0263235,77.2081197 16.7549664,77.3576923 17.3482353,77.6564103 C17.9415042,77.9547009 18.5203445,78.4141026 19.0839076,79.0333333 L19.0839076,74.575641 C19.0839076,73.9559829 19.2065504,73.4876068 19.4518361,73.1705128 C19.6971218,72.8538462 20.0468025,72.6948718 20.5013025,72.6948718 C20.9553782,72.6948718 21.3046345,72.8405983 21.5499202,73.1316239 C21.7952059,73.4230769 21.9178487,73.8525641 21.9178487,74.4205128 L21.9178487,87.7393162 C21.9178487,88.3145299 21.7862941,88.7457265 21.5227605,89.0333333 C21.2592269,89.3209402 20.918458,89.4653846 20.5013025,89.4653846 C20.090937,89.4653846 19.7522899,89.315812 19.484937,89.0166667 C19.2171597,88.7179487 19.0839076,88.2923077 19.0839076,87.7393162 L19.0839076,87.7393162 Z" id="Fill-9" fill="#FFFFFF"></path>
                    <path d="M26.1267479,78.9004274 L26.1267479,87.6286325 C26.1267479,88.2333333 25.9837353,88.6905983 25.6989832,89 C25.412958,89.3102564 25.0505462,89.4653846 24.6108992,89.4653846 C24.1716765,89.4653846 23.8147815,89.3059829 23.5402143,88.9893162 C23.2652227,88.6722222 23.1281513,88.2188034 23.1281513,87.6286325 L23.1281513,78.9893162 C23.1281513,78.3918803 23.2652227,77.9423077 23.5402143,77.6397436 C23.8147815,77.3371795 24.1716765,77.1863248 24.6108992,77.1863248 C25.0505462,77.1863248 25.412958,77.3371795 25.6989832,77.6397436 C25.9837353,77.9423077 26.1267479,78.3623932 26.1267479,78.9004274 Z M24.6435756,75.7811966 C24.2268445,75.7811966 23.8695252,75.6521368 23.5728908,75.3940171 C23.2762563,75.1358974 23.1281513,74.7709402 23.1281513,74.2987179 C23.1281513,73.8713675 23.2800756,73.5192308 23.5839244,73.242735 C23.8877731,72.965812 24.2408487,72.8277778 24.6435756,72.8277778 C25.0318739,72.8277778 25.3764622,72.9529915 25.6764916,73.2038462 C25.976521,73.4547009 26.1267479,73.8196581 26.1267479,74.2987179 C26.1267479,74.7636752 25.9807647,75.1269231 25.6875252,75.3884615 C25.3947101,75.6504274 25.0467269,75.7811966 24.6435756,75.7811966 L24.6435756,75.7811966 Z" id="Fill-10" fill="#FFFFFF"></path>
                    <path d="M34.8072311,83.3918803 C34.367584,83.5542735 33.7284832,83.7252137 32.8899286,83.9064103 C32.0509496,84.0867521 31.4708361,84.2200855 31.1487395,84.3047009 C30.8266429,84.3893162 30.5189748,84.5551282 30.2261597,84.8021368 C29.9333445,85.0495726 29.7865126,85.3940171 29.7865126,85.8367521 C29.7865126,86.2935897 29.9588067,86.6824786 30.3029706,87.0034188 C30.6471345,87.324359 31.0973908,87.4846154 31.6541639,87.4846154 C32.2474328,87.4846154 32.7944454,87.3542735 33.2964748,87.0918803 C33.7980798,86.8303419 34.1660084,86.4931624 34.4002605,86.0799145 C34.6710084,85.6226496 34.8072311,84.8705128 34.8072311,83.8230769 L34.8072311,83.3918803 Z M35.0041387,87.7615385 C34.2797395,88.3294872 33.5782563,88.7551282 32.9005378,89.0388889 C32.2236681,89.3226496 31.4636218,89.4653846 30.6212479,89.4653846 C29.8527143,89.4653846 29.1771176,89.3119658 28.5948824,89.0059829 C28.0130714,88.7 27.5640882,88.2850427 27.2496303,87.7615385 C26.9347479,87.2376068 26.7773067,86.6700855 26.7773067,86.0576923 C26.7773067,85.2320513 27.0365966,84.5273504 27.5572983,83.9448718 C28.0767269,83.3623932 28.7909412,82.9713675 29.6986681,82.7722222 C29.8896345,82.7282051 30.3615336,82.6286325 31.116063,82.4735043 C31.8705924,82.3188034 32.5164832,82.1769231 33.0550084,82.0478632 C33.5926849,81.9188034 34.177042,81.7619658 34.8072311,81.5777778 C34.7703109,80.7811966 34.6107479,80.1970085 34.3289664,79.824359 C34.0467605,79.4521368 33.4624034,79.265812 32.5771681,79.265812 C31.8154244,79.265812 31.2421008,79.3726496 30.8576218,79.5863248 C30.4735672,79.8004274 30.1438319,80.1213675 29.8692647,80.5487179 C29.5942731,80.9764957 29.4003361,81.258547 29.2870294,81.3952991 C29.1732983,81.5316239 28.9297101,81.5995726 28.5566891,81.5995726 C28.2193151,81.5995726 27.9281975,81.4910256 27.6829118,81.2735043 C27.4376261,81.0559829 27.3149832,80.7773504 27.3149832,80.4384615 C27.3149832,79.907265 27.5021303,79.3910256 27.8755756,78.8893162 C28.249021,78.3880342 28.8308319,77.9752137 29.6218571,77.6508547 C30.4128824,77.3260684 31.3978445,77.1636752 32.5771681,77.1636752 C33.8952605,77.1636752 34.9311471,77.3209402 35.6856765,77.634188 C36.4397815,77.9474359 36.9727899,78.4435897 37.2834286,79.1217949 C37.5953403,79.8004274 37.7506597,80.7 37.7506597,81.8209402 C37.7506597,82.5290598 37.7485378,83.1299145 37.7451429,83.624359 C37.7417479,84.1179487 37.7362311,84.6675214 37.7285924,85.2722222 C37.7285924,85.8405983 37.8223782,86.4320513 38.0086765,87.0478632 C38.1953992,87.6636752 38.2891849,88.0598291 38.2891849,88.2367521 C38.2891849,88.5470085 38.1444748,88.8290598 37.8550546,89.082906 C37.5656345,89.3376068 37.238021,89.4653846 36.8717899,89.4653846 C36.5641218,89.4653846 36.2602731,89.3192308 35.9598193,89.0282051 C35.6597899,88.7367521 35.3410882,88.3145299 35.0041387,87.7615385 L35.0041387,87.7615385 Z" id="Fill-11" fill="#FFFFFF"></path>
                    <path d="M38.9936387,87.6286325 L38.9936387,74.5311966 C38.9936387,73.9264957 39.1268908,73.4692308 39.3946681,73.1594017 C39.6615966,72.85 40.0227353,72.6948718 40.4763866,72.6948718 C40.9304622,72.6948718 41.2966933,72.8478632 41.5755042,73.1538462 C41.853042,73.4598291 41.9922353,73.9192308 41.9922353,74.5311966 L41.9922353,87.6286325 C41.9922353,88.2410256 41.8513445,88.7 41.569563,89.0059829 C41.2877815,89.3119658 40.9232479,89.4653846 40.4763866,89.4653846 C40.0371639,89.4653846 39.6802689,89.3059829 39.4052773,88.9893162 C39.1311345,88.6722222 38.9936387,88.2188034 38.9936387,87.6286325" id="Fill-12" fill="#FFFFFF"></path>
                    <path d="M51.5074538,83.3252137 C51.5074538,82.0940171 51.237979,81.1350427 50.7003025,80.4491453 C50.1613529,79.7632479 49.4382269,79.4205128 48.5300756,79.4205128 C47.9444454,79.4205128 47.4279874,79.5739316 46.9815504,79.8794872 C46.5346891,80.1858974 46.1905252,80.6371795 45.9490588,81.2346154 C45.7071681,81.8320513 45.5862227,82.5290598 45.5862227,83.3252137 C45.5862227,84.1149573 45.7054706,84.8042735 45.943542,85.3940171 C46.1811891,85.984188 46.521958,86.4358974 46.965,86.7491453 C47.408042,87.0628205 47.9295924,87.2192308 48.5300756,87.2192308 C49.4382269,87.2192308 50.1613529,86.8747863 50.7003025,86.1850427 C51.237979,85.4952991 51.5074538,84.5423077 51.5074538,83.3252137 Z M54.517084,83.3252137 C54.517084,84.2252137 54.3778908,85.0551282 54.0995042,85.8145299 C53.8211176,86.5739316 53.4188151,87.2269231 52.8917479,87.7722222 C52.3638319,88.3179487 51.7340672,88.7367521 51.0020294,89.0282051 C50.2695672,89.3192308 49.4458655,89.4653846 48.5300756,89.4653846 C47.6223487,89.4653846 46.8058613,89.3175214 46.0810378,89.0222222 C45.3557899,88.7273504 44.7272983,88.3051282 44.1968361,87.7555556 C43.6659496,87.2064103 43.2627983,86.557265 42.9886555,85.808547 C42.7140882,85.0602564 42.5765924,84.2324786 42.5765924,83.3252137 C42.5765924,82.4111111 42.7157857,81.5739316 42.9941723,80.8145299 C43.2721345,80.0551282 43.6714664,79.4059829 44.1913193,78.8675214 C44.7111723,78.3290598 45.340937,77.9145299 46.0810378,77.6230769 C46.8202899,77.3316239 47.6367773,77.1863248 48.5300756,77.1863248 C49.4382269,77.1863248 50.2619286,77.3337607 51.0020294,77.6286325 C51.7417059,77.9235043 52.3752899,78.3440171 52.9023571,78.8893162 C53.4294244,79.4354701 53.8308782,80.084188 54.105021,80.8367521 C54.3800126,81.5884615 54.517084,82.4183761 54.517084,83.3252137 L54.517084,83.3252137 Z" id="Fill-13" fill="#FFFFFF"></path>
                    <path d="M58.1407773,83.225641 C58.1407773,84.4504274 58.4064328,85.375641 58.9373193,86.0021368 C59.4686303,86.6290598 60.1548361,86.942735 60.9967857,86.942735 C61.4949958,86.942735 61.9656218,86.8081197 62.4082395,86.5388889 C62.8517059,86.2696581 63.2124202,85.8641026 63.4903824,85.3222222 C63.7687689,84.7799145 63.9079622,84.1217949 63.9079622,83.3474359 C63.9079622,82.1162393 63.6389118,81.157265 63.1003866,80.4713675 C62.5627101,79.7854701 61.8540126,79.442735 60.9751429,79.442735 C60.1183403,79.442735 59.4317101,79.7709402 58.9156765,80.4273504 C58.3992185,81.0837607 58.1407773,82.0166667 58.1407773,83.225641 Z M66.8297479,79.3982906 L66.8297479,88.1705128 C66.8297479,89.1735043 66.7232311,90.0363248 66.5110462,90.7589744 C66.2988613,91.4820513 65.9585168,92.0794872 65.4900126,92.5512821 C65.021084,93.0235043 64.4074454,93.3735043 63.6499454,93.6021368 C62.8915966,93.8307692 61.9490714,93.9448718 60.8210966,93.9448718 C59.788605,93.9448718 58.8660252,93.8 58.0529328,93.508547 C57.2402647,93.2162393 56.613895,92.8405983 56.1746723,92.3799145 C55.7354496,91.9183761 55.5156261,91.4452991 55.5156261,90.958547 C55.5156261,90.5897436 55.6399664,90.2893162 55.8890714,90.057265 C56.1381765,89.824359 56.4382059,89.7081197 56.789584,89.7081197 C57.2288067,89.7081197 57.6137101,89.9034188 57.9434454,90.2948718 C58.1042815,90.4935897 58.2706345,90.6948718 58.4433529,90.8978632 C58.6147983,91.1004274 58.8053403,91.2730769 59.0141303,91.4175214 C59.2233445,91.5611111 59.4732983,91.6679487 59.7669622,91.7380342 C60.0593529,91.8081197 60.3963025,91.8431624 60.7773866,91.8431624 C61.5535588,91.8431624 62.1557395,91.7350427 62.5843529,91.517094 C63.012542,91.2991453 63.3125714,90.9952991 63.4852899,90.6047009 C63.6571597,90.2132479 63.7577353,89.7948718 63.7874412,89.3487179 C63.8167227,88.9025641 63.8383655,88.1854701 63.8532185,87.1970085 C63.3915042,87.8461538 62.8589202,88.3401709 62.255042,88.6794872 C61.6507395,89.0188034 60.9314328,89.1884615 60.0962731,89.1884615 C59.093063,89.1884615 58.2163151,88.9303419 57.4651807,88.4141026 C56.714895,87.8978632 56.1381765,87.1752137 55.7354496,86.2457265 C55.3327227,85.3166667 55.1311471,84.2435897 55.1311471,83.0269231 C55.1311471,82.1196581 55.2537899,81.3012821 55.4990756,80.5709402 C55.7443613,79.8410256 56.0944664,79.2252137 56.548542,78.7235043 C57.0021933,78.2222222 57.5258655,77.8444444 58.1191345,77.5897436 C58.7124034,77.3354701 59.3642353,77.2081197 60.0742059,77.2081197 C60.9237941,77.2081197 61.6600756,77.3722222 62.2826261,77.7004274 C62.9047521,78.0286325 63.4835924,78.5431624 64.0178739,79.2435897 L64.0178739,78.834188 C64.0178739,78.3106838 64.1456092,77.9051282 64.4023529,77.6175214 C64.6586723,77.3299145 64.9884076,77.1863248 65.3911345,77.1863248 C65.9691261,77.1863248 66.353605,77.3760684 66.5445714,77.7559829 C66.7351134,78.1354701 66.8297479,78.6833333 66.8297479,79.3982906 L66.8297479,79.3982906 Z" id="Fill-14" fill="#FFFFFF"></path>
                </g>
            </g>
        </g>
    </g>
</svg>